<svg width="24" height="24" viewBox="0 0 24 24" fill="none" xmlns="http://www.w3.org/2000/svg">
<path d="M20.19 14.06L19.06 12.18C18.81 11.77 18.59 10.98 18.59 10.5V8.63C18.59 5 15.64 2.05 12.02 2.05C8.38996 2.06 5.43996 5 5.43996 8.63V10.49C5.43996 10.97 5.21996 11.76 4.97996 12.17L3.84996 14.05C3.41996 14.78 3.31996 15.61 3.58996 16.33C3.85996 17.06 4.46996 17.64 5.26996 17.9C6.34996 18.26 7.43996 18.52 8.54996 18.71C8.65996 18.73 8.76996 18.74 8.87996 18.76L9.31996 18.82C9.57996 18.86 9.83996 18.89 10.11 18.91C11.3705 19.0289 12.6394 19.0289 13.9 18.91C14.13 18.89 14.36 18.87 14.58 18.84C14.76 18.82 14.94 18.8 15.12 18.77C15.23 18.76 15.34 18.74 15.45 18.72C16.57 18.54 17.68 18.26 18.76 17.9C19.1336 17.7751 19.4746 17.5685 19.7583 17.2952C20.042 17.0218 20.2612 16.6887 20.4 16.32C20.68 15.57 20.6 14.75 20.19 14.06ZM12.75 10C12.75 10.2016 12.6699 10.3949 12.5274 10.5374C12.3848 10.6799 12.1915 10.76 11.99 10.76C11.7884 10.76 11.5951 10.6799 11.4526 10.5374C11.31 10.3949 11.23 10.2016 11.23 10V6.9C11.23 6.69844 11.31 6.50513 11.4526 6.3626C11.5951 6.22007 11.7884 6.14 11.99 6.14C12.1915 6.14 12.3848 6.22007 12.5274 6.3626C12.6699 6.50513 12.75 6.69844 12.75 6.9V10ZM14.83 20.01C14.6197 20.5922 14.2352 21.0954 13.7289 21.4515C13.2226 21.8075 12.6189 21.999 12 22C11.21 22 10.43 21.68 9.87996 21.11C9.55996 20.81 9.31996 20.41 9.17996 20C9.30996 20.02 9.43996 20.03 9.57996 20.05C9.80996 20.08 10.05 20.11 10.29 20.13C10.86 20.18 11.44 20.21 12.02 20.21C12.59 20.21 13.16 20.18 13.72 20.13C13.93 20.11 14.14 20.1 14.34 20.07L14.83 20.01Z" fill="#212946"/>
</svg>
