<svg width="24" height="24" viewBox="0 0 24 24" fill="none" xmlns="http://www.w3.org/2000/svg">
<path opacity="0.4" d="M19.0068 10.5365V12.0665H3.2168V10.5365C3.2168 8.21654 5.1068 6.32654 7.4268 6.32654H14.7968C17.1168 6.32654 19.0068 8.21654 19.0068 10.5365Z" fill="white"/>
<path d="M19.0068 12.0645V17.8545C19.0068 20.1745 17.1168 22.0645 14.7968 22.0645H7.4268C5.1068 22.0645 3.2168 20.1745 3.2168 17.8545V12.0645H19.0068Z" fill="white"/>
<path opacity="0.4" d="M6.7168 5.18549C6.3068 5.18549 5.9668 4.84549 5.9668 4.43549V2.68549C5.9668 2.27549 6.3068 1.93549 6.7168 1.93549C7.1268 1.93549 7.4668 2.27549 7.4668 2.68549V4.43549C7.4668 4.85549 7.1268 5.18549 6.7168 5.18549ZM10.7168 5.18549C10.3068 5.18549 9.9668 4.84549 9.9668 4.43549V2.68549C9.9668 2.27549 10.3068 1.93549 10.7168 1.93549C11.1268 1.93549 11.4668 2.27549 11.4668 2.68549V4.43549C11.4668 4.85549 11.1268 5.18549 10.7168 5.18549ZM14.7168 5.18549C14.3068 5.18549 13.9668 4.84549 13.9668 4.43549V2.68549C13.9668 2.27549 14.3068 1.93549 14.7168 1.93549C15.1268 1.93549 15.4668 2.27549 15.4668 2.68549V4.43549C15.4668 4.85549 15.1268 5.18549 14.7168 5.18549ZM22.8668 14.3865C22.8668 16.5365 21.1268 18.2765 18.9768 18.2765V10.4865C21.1168 10.4865 22.8668 12.2365 22.8668 14.3865Z" fill="white"/>
</svg>
