<svg width="24" height="24" viewBox="0 0 24 24" fill="none" xmlns="http://www.w3.org/2000/svg">
<path d="M20.0402 6.82201L14.2802 2.79201C12.7102 1.69201 10.3002 1.75201 8.79023 2.92201L3.78023 6.83201C2.78023 7.61201 1.99023 9.21201 1.99023 10.472V17.372C1.99023 19.922 4.06023 22.002 6.61023 22.002H17.3902C19.9402 22.002 22.0102 19.932 22.0102 17.382V10.602C22.0102 9.25201 21.1402 7.59201 20.0402 6.82201ZM12.7502 18.002C12.7502 18.412 12.4102 18.752 12.0002 18.752C11.5902 18.752 11.2502 18.412 11.2502 18.002V15.002C11.2502 14.592 11.5902 14.252 12.0002 14.252C12.4102 14.252 12.7502 14.592 12.7502 15.002V18.002Z" fill="#181D31"/>
</svg>
